# xmcd
#
# Track frame offsets: 
#        150
#        31173
#        67994
#        93775
#        130845
#        156001
#        188078
#        256501
#        271119
#
# Disc length: 4029 seconds
#
# Revision: 1
# Processed by: cddbd v1.5.1PL2 Copyright (c) Steve Scherf et al.
# Submitted via: ExactAudioCopy v0.95b3
#
DISCID=620fbb09
DTITLE=Julian Sas - Dedication - cd 2
DYEAR=2005
DGENRE=Blues
TTITLE0=Sugarcup Boogie
TTITLE1=Lookin' For A Friend
TTITLE2=Making My Return
TTITLE3=I'm Still Cryin'
TTITLE4=The Devil Got My Number
TTITLE5=Blues For The Lost And Found
TTITLE6=Hey Joe 
TTITLE7=Make My Water
TTITLE8=Tale Spreader
EXTD=
EXTT0=
EXTT1=
EXTT2=
EXTT3=
EXTT4=
EXTT5=
EXTT6=
EXTT7=
EXTT8=
PLAYORDER=
